<svg xmlns="http://www.w3.org/2000/svg" viewBox="0 0 512 512" width="512" height="512">
  <rect width="512" height="512" fill="#0a1a0f"/>
  <!-- Leaf shape -->
  <path d="M256 72 C256 72, 400 156, 400 284 C400 372, 336 440, 256 440 C176 440, 112 372, 112 284 C112 156, 256 72 256 72 Z" fill="#10b981" opacity="0.9"/>
  <!-- Leaf vein center -->
  <line x1="256" y1="130" x2="256" y2="415" stroke="#0a1a0f" stroke-width="7" stroke-linecap="round"/>
  <!-- Leaf veins left -->
  <line x1="256" y1="210" x2="162" y2="272" stroke="#0a1a0f" stroke-width="4" stroke-linecap="round"/>
  <line x1="256" y1="265" x2="158" y2="318" stroke="#0a1a0f" stroke-width="4" stroke-linecap="round"/>
  <line x1="256" y1="320" x2="170" y2="368" stroke="#0a1a0f" stroke-width="4" stroke-linecap="round"/>
  <!-- Leaf veins right -->
  <line x1="256" y1="210" x2="350" y2="272" stroke="#0a1a0f" stroke-width="4" stroke-linecap="round"/>
  <line x1="256" y1="265" x2="354" y2="318" stroke="#0a1a0f" stroke-width="4" stroke-linecap="round"/>
  <line x1="256" y1="320" x2="342" y2="368" stroke="#0a1a0f" stroke-width="4" stroke-linecap="round"/>
  <!-- AI scan line -->
  <line x1="112" y1="256" x2="400" y2="256" stroke="#34d399" stroke-width="4" opacity="0.8" stroke-dasharray="20 10"/>
  <!-- Glow dots -->
  <circle cx="112" cy="256" r="10" fill="#34d399" opacity="0.9"/>
  <circle cx="400" cy="256" r="10" fill="#34d399" opacity="0.9"/>
  <!-- Subtle corner circuit lines -->
  <line x1="0" y1="40" x2="40" y2="40" stroke="#10b981" stroke-width="3" opacity="0.3"/>
  <line x1="40" y1="0" x2="40" y2="40" stroke="#10b981" stroke-width="3" opacity="0.3"/>
  <line x1="512" y1="40" x2="472" y2="40" stroke="#10b981" stroke-width="3" opacity="0.3"/>
  <line x1="472" y1="0" x2="472" y2="40" stroke="#10b981" stroke-width="3" opacity="0.3"/>
  <line x1="0" y1="472" x2="40" y2="472" stroke="#10b981" stroke-width="3" opacity="0.3"/>
  <line x1="40" y1="512" x2="40" y2="472" stroke="#10b981" stroke-width="3" opacity="0.3"/>
  <line x1="512" y1="472" x2="472" y2="472" stroke="#10b981" stroke-width="3" opacity="0.3"/>
  <line x1="472" y1="512" x2="472" y2="472" stroke="#10b981" stroke-width="3" opacity="0.3"/>
</svg>
