<svg xmlns="http://www.w3.org/2000/svg" viewBox="0 0 192 192" width="192" height="192">
  <rect width="192" height="192" fill="#0a1a0f"/>
  <!-- Leaf shape -->
  <path d="M96 28 C96 28, 148 60, 148 108 C148 140, 124 164, 96 164 C68 164, 44 140, 44 108 C44 60, 96 28 96 28 Z" fill="#10b981" opacity="0.9"/>
  <!-- Leaf vein center -->
  <line x1="96" y1="50" x2="96" y2="155" stroke="#0a1a0f" stroke-width="3" stroke-linecap="round"/>
  <!-- Leaf veins left -->
  <line x1="96" y1="80" x2="62" y2="105" stroke="#0a1a0f" stroke-width="1.5" stroke-linecap="round"/>
  <line x1="96" y1="100" x2="60" y2="120" stroke="#0a1a0f" stroke-width="1.5" stroke-linecap="round"/>
  <line x1="96" y1="120" x2="65" y2="138" stroke="#0a1a0f" stroke-width="1.5" stroke-linecap="round"/>
  <!-- Leaf veins right -->
  <line x1="96" y1="80" x2="130" y2="105" stroke="#0a1a0f" stroke-width="1.5" stroke-linecap="round"/>
  <line x1="96" y1="100" x2="132" y2="120" stroke="#0a1a0f" stroke-width="1.5" stroke-linecap="round"/>
  <line x1="96" y1="120" x2="127" y2="138" stroke="#0a1a0f" stroke-width="1.5" stroke-linecap="round"/>
  <!-- AI scan line -->
  <line x1="44" y1="96" x2="148" y2="96" stroke="#34d399" stroke-width="2" opacity="0.7" stroke-dasharray="8 4"/>
  <!-- Glow dots -->
  <circle cx="44" cy="96" r="4" fill="#34d399" opacity="0.9"/>
  <circle cx="148" cy="96" r="4" fill="#34d399" opacity="0.9"/>
</svg>
